<svg width="1500" height="1500" viewBox="0 0 1500 1500" fill="none" xmlns="http://www.w3.org/2000/svg">
<path d="M247.841 999.931H433.342V1002.98H247.841V999.931Z" fill="#0C4A6E"/>
<path d="M339.066 908.704H342.115V1094.2H339.066V908.704Z" fill="#0C4A6E"/>
<path d="M341.808 1095.12L339.373 1093.29C339.679 1092.88 369.983 1052.08 369.983 1001.45C369.983 950.833 339.68 910.028 339.373 909.622L341.808 907.786C342.12 908.2 373.032 949.785 373.032 1001.45C373.033 1053.12 342.121 1094.71 341.808 1095.12Z" fill="#0C4A6E"/>
<path d="M340.591 1095.73C288.608 1095.73 246.316 1053.44 246.316 1001.46C246.316 949.473 288.608 907.181 340.591 907.181C392.574 907.181 434.866 949.473 434.866 1001.46C434.866 1053.44 392.574 1095.73 340.591 1095.73ZM340.591 910.229C290.289 910.229 249.365 951.153 249.365 1001.46C249.365 1051.76 290.289 1092.68 340.591 1092.68C390.893 1092.68 431.817 1051.76 431.817 1001.46C431.817 951.152 390.893 910.229 340.591 910.229Z" fill="#0C4A6E"/>
<path d="M341.075 1095.65L340.106 1092.76C340.259 1092.71 355.525 1087.48 370.571 1073.64C384.407 1060.92 400.9 1038.06 400.9 1001.45C400.9 964.785 384.356 941.912 370.477 929.181C355.432 915.379 340.258 910.201 340.107 910.15L341.075 907.259C341.719 907.474 357.02 912.698 372.539 926.934C386.868 940.079 403.95 963.678 403.95 1001.45C403.95 1039.23 386.868 1062.83 372.539 1075.98C357.019 1090.21 341.719 1095.44 341.075 1095.65Z" fill="#0C4A6E"/>
<path d="M339.374 1095.12C339.062 1094.71 308.15 1053.12 308.15 1001.45C308.15 949.785 339.062 908.2 339.374 907.786L341.809 909.622C341.503 910.028 311.199 950.833 311.199 1001.45C311.199 1052.08 341.503 1092.88 341.809 1093.29L339.374 1095.12Z" fill="#0C4A6E"/>
<path d="M340.107 1095.65C339.463 1095.44 324.163 1090.21 308.643 1075.98C294.314 1062.83 277.232 1039.23 277.232 1001.45C277.232 963.677 294.314 940.078 308.643 926.934C324.162 912.699 339.463 907.474 340.107 907.259L341.076 910.15C340.923 910.202 325.657 915.43 310.611 929.267C296.775 941.993 280.282 964.846 280.282 1001.45C280.282 1038.06 296.775 1060.92 310.611 1073.64C325.656 1087.48 340.923 1092.71 341.076 1092.76L340.107 1095.65Z" fill="#0C4A6E"/>
<path d="M422.941 1044.4C413.719 1040.44 387.235 1031.23 340.591 1031.23C293.95 1031.23 267.465 1040.44 258.243 1044.4L257.04 1041.59C266.435 1037.56 293.384 1028.18 340.591 1028.18C387.801 1028.18 414.749 1037.56 424.144 1041.6L422.941 1044.4ZM280.199 1072.67L278.9 1069.91C289.374 1064.97 308.578 1059.09 340.591 1059.09C372.428 1059.09 391.589 1064.92 402.057 1069.8L400.767 1072.57C390.579 1067.81 371.868 1062.14 340.59 1062.14C309.142 1062.14 290.391 1067.87 280.199 1072.67ZM340.591 974.733C293.384 974.733 266.435 965.35 257.04 961.315L258.243 958.514C267.465 962.473 293.95 971.684 340.591 971.684C387.235 971.684 413.719 962.473 422.941 958.513L424.144 961.314C414.749 965.349 387.801 974.733 340.591 974.733ZM340.591 943.816C308.574 943.816 289.371 937.935 278.899 933.001L280.199 930.243C290.389 935.044 309.138 940.767 340.591 940.767C371.869 940.767 390.58 935.098 400.768 930.342L402.058 933.106C391.589 937.991 372.428 943.816 340.591 943.816ZM247.841 999.931H433.342V1002.98H247.841V999.931Z" fill="#0C4A6E"/>
<path d="M339.066 908.704H342.115V1094.2H339.066V908.704Z" fill="#0C4A6E"/>
<path d="M341.808 1095.12L339.373 1093.29C339.679 1092.88 369.983 1052.08 369.983 1001.45C369.983 950.833 339.68 910.028 339.373 909.622L341.808 907.786C342.12 908.2 373.032 949.785 373.032 1001.45C373.033 1053.12 342.121 1094.71 341.808 1095.12Z" fill="#0C4A6E"/>
<path d="M340.591 1095.73C288.608 1095.73 246.316 1053.44 246.316 1001.46C246.316 949.473 288.608 907.181 340.591 907.181C392.574 907.181 434.866 949.473 434.866 1001.46C434.866 1053.44 392.574 1095.73 340.591 1095.73ZM340.591 910.229C290.289 910.229 249.365 951.153 249.365 1001.46C249.365 1051.76 290.289 1092.68 340.591 1092.68C390.893 1092.68 431.817 1051.76 431.817 1001.46C431.817 951.152 390.893 910.229 340.591 910.229Z" fill="#0C4A6E"/>
<path d="M341.075 1095.65L340.106 1092.76C340.259 1092.71 355.525 1087.48 370.571 1073.64C384.407 1060.92 400.9 1038.06 400.9 1001.45C400.9 964.785 384.356 941.912 370.477 929.181C355.432 915.379 340.258 910.201 340.107 910.15L341.075 907.259C341.719 907.474 357.02 912.698 372.539 926.934C386.868 940.079 403.95 963.678 403.95 1001.45C403.95 1039.23 386.868 1062.83 372.539 1075.98C357.019 1090.21 341.719 1095.44 341.075 1095.65Z" fill="#0C4A6E"/>
<path d="M339.374 1095.12C339.062 1094.71 308.15 1053.12 308.15 1001.45C308.15 949.785 339.062 908.2 339.374 907.786L341.809 909.622C341.503 910.028 311.199 950.833 311.199 1001.45C311.199 1052.08 341.503 1092.88 341.809 1093.29L339.374 1095.12Z" fill="#0C4A6E"/>
<path d="M340.107 1095.65C339.463 1095.44 324.163 1090.21 308.643 1075.98C294.314 1062.83 277.232 1039.23 277.232 1001.45C277.232 963.677 294.314 940.078 308.643 926.934C324.162 912.699 339.463 907.474 340.107 907.259L341.076 910.15C340.923 910.202 325.657 915.43 310.611 929.267C296.775 941.993 280.282 964.846 280.282 1001.45C280.282 1038.06 296.775 1060.92 310.611 1073.64C325.656 1087.48 340.923 1092.71 341.076 1092.76L340.107 1095.65Z" fill="#0C4A6E"/>
<path d="M422.941 1044.4C413.719 1040.44 387.235 1031.23 340.591 1031.23C293.95 1031.23 267.465 1040.44 258.243 1044.4L257.04 1041.59C266.435 1037.56 293.384 1028.18 340.591 1028.18C387.801 1028.18 414.749 1037.56 424.144 1041.6L422.941 1044.4ZM280.199 1072.67L278.9 1069.91C289.374 1064.97 308.578 1059.09 340.591 1059.09C372.428 1059.09 391.589 1064.92 402.057 1069.8L400.767 1072.57C390.579 1067.81 371.868 1062.14 340.59 1062.14C309.142 1062.14 290.391 1067.87 280.199 1072.67ZM340.591 974.733C293.384 974.733 266.435 965.35 257.04 961.315L258.243 958.514C267.465 962.473 293.95 971.684 340.591 971.684C387.235 971.684 413.719 962.473 422.941 958.513L424.144 961.314C414.749 965.349 387.801 974.733 340.591 974.733ZM340.591 943.816C308.574 943.816 289.371 937.935 278.899 933.001L280.199 930.243C290.389 935.044 309.138 940.767 340.591 940.767C371.869 940.767 390.58 935.098 400.768 930.342L402.058 933.106C391.589 937.991 372.428 943.816 340.591 943.816ZM1126.95 1145.5C1074.97 1145.5 1032.68 1103.21 1032.68 1051.23C1032.68 999.243 1074.97 956.952 1126.95 956.952C1178.94 956.952 1221.23 999.243 1221.23 1051.23C1221.23 1103.21 1178.94 1145.5 1126.95 1145.5ZM1126.95 960C1076.65 960 1035.73 1000.92 1035.73 1051.23C1035.73 1101.53 1076.65 1142.45 1126.95 1142.45C1177.25 1142.45 1218.18 1101.53 1218.18 1051.23C1218.18 1000.92 1177.25 960 1126.95 960Z" fill="#0C4A6E"/>
<path d="M1126.95 1118.35C1098.44 1118.35 1072.96 1100.25 1063.55 1073.29L1066.43 1072.29C1075.41 1098.02 1099.73 1115.3 1126.95 1115.3C1154.17 1115.3 1178.49 1098.02 1187.47 1072.29L1190.35 1073.29C1180.95 1100.24 1155.47 1118.35 1126.95 1118.35Z" fill="#0C4A6E"/>
<path d="M1192.56 1075.5C1186.89 1075.5 1182.32 1073.1 1182.12 1072.99L1183.56 1070.3C1183.6 1070.32 1188.42 1072.85 1193.89 1072.4L1194.13 1075.44C1193.6 1075.48 1193.08 1075.5 1192.56 1075.5ZM1060.85 1075.5C1060.33 1075.5 1059.81 1075.48 1059.28 1075.44L1059.53 1072.4C1064.99 1072.85 1069.81 1070.33 1069.86 1070.3L1071.3 1072.99C1071.09 1073.1 1066.53 1075.5 1060.85 1075.5Z" fill="#0C4A6E"/>
<path d="M1150.12 1056.61C1158.33 1056.61 1164.99 1042.57 1164.99 1025.26C1164.99 1007.94 1158.33 993.907 1150.12 993.907C1141.9 993.907 1135.25 1007.94 1135.25 1025.26C1135.25 1042.57 1141.9 1056.61 1150.12 1056.61Z" fill="#0C4A6E"/>
<path d="M1103.79 1056.61C1112 1056.61 1118.66 1042.57 1118.66 1025.26C1118.66 1007.94 1112 993.907 1103.79 993.907C1095.57 993.907 1088.91 1007.94 1088.91 1025.26C1088.91 1042.57 1095.57 1056.61 1103.79 1056.61Z" fill="#0C4A6E"/>
<path d="M1052.98 940.725H849.955C836.209 940.725 825.027 929.542 825.027 915.797V856.747C825.027 844.683 815.212 834.867 803.148 834.867H644.169C630.423 834.867 619.241 823.684 619.241 809.939V727.664C619.241 715.6 609.426 705.784 597.362 705.784H447.948C434.202 705.784 423.019 694.601 423.019 680.855V510.539H426.068V680.855C426.068 692.919 435.883 702.735 447.948 702.735H597.361C611.107 702.735 622.29 713.918 622.29 727.664V809.939C622.29 822.003 632.105 831.818 644.169 831.818H803.147C816.893 831.818 828.075 843.001 828.075 856.747V915.797C828.075 927.861 837.89 937.676 849.954 937.676H1052.98L1052.98 940.725Z" fill="#0C4A6E"/>
<path d="M773.986 997.57H483.814C470.068 997.57 458.886 986.387 458.886 972.642V831.93C458.886 819.866 449.071 810.05 437.007 810.05H323.797V807.001H437.007C450.753 807.001 461.935 818.184 461.935 831.93V972.643C461.935 984.707 471.75 994.522 483.814 994.522H773.986C786.05 994.522 795.865 984.708 795.865 972.643V901.206C795.865 887.46 807.048 876.277 820.794 876.277H993.668C1005.73 876.277 1015.55 866.462 1015.55 854.397V607.949H1018.6V854.397C1018.6 868.143 1007.41 879.326 993.668 879.326H820.794C808.73 879.326 798.915 889.141 798.915 901.206V972.643C798.914 986.388 787.731 997.57 773.986 997.57Z" fill="#0C4A6E"/>
<path d="M717.425 910.229H557.504C543.758 910.229 532.576 899.046 532.576 885.3V595.215H535.625V885.3C535.625 897.364 545.44 907.18 557.504 907.18H717.425C729.489 907.18 739.304 897.365 739.304 885.3V801.503C739.304 787.757 750.487 776.574 764.233 776.574H1106.93V779.623H764.233C752.169 779.623 742.353 789.438 742.353 801.503V885.3C742.354 899.046 731.171 910.229 717.425 910.229Z" fill="#0C4A6E"/>
<path d="M1017.07 614.978C1020.95 614.978 1024.1 611.831 1024.1 607.949C1024.1 604.067 1020.95 600.92 1017.07 600.92C1013.19 600.92 1010.04 604.067 1010.04 607.949C1010.04 611.831 1013.19 614.978 1017.07 614.978Z" fill="#0C4A6E"/>
<path d="M1106.93 785.128C1110.81 785.128 1113.96 781.981 1113.96 778.099C1113.96 774.217 1110.81 771.07 1106.93 771.07C1103.05 771.07 1099.9 774.217 1099.9 778.099C1099.9 781.981 1103.05 785.128 1106.93 785.128Z" fill="#0C4A6E"/>
<path d="M1052.98 946.23C1056.86 946.23 1060.01 943.083 1060.01 939.201C1060.01 935.319 1056.86 932.172 1052.98 932.172C1049.1 932.172 1045.95 935.319 1045.95 939.201C1045.95 943.083 1049.1 946.23 1052.98 946.23Z" fill="#0C4A6E"/>
<path d="M323.796 815.555C327.678 815.555 330.825 812.408 330.825 808.526C330.825 804.644 327.678 801.497 323.796 801.497C319.914 801.497 316.767 804.644 316.767 808.526C316.767 812.408 319.914 815.555 323.796 815.555Z" fill="#0C4A6E"/>
<path d="M534.1 602.244C537.982 602.244 541.129 599.097 541.129 595.215C541.129 591.333 537.982 588.186 534.1 588.186C530.218 588.186 527.071 591.333 527.071 595.215C527.071 599.097 530.218 602.244 534.1 602.244Z" fill="#0C4A6E"/>
<path d="M424.544 517.568C428.426 517.568 431.573 514.421 431.573 510.539C431.573 506.657 428.426 503.51 424.544 503.51C420.662 503.51 417.515 506.657 417.515 510.539C417.515 514.421 420.662 517.568 424.544 517.568Z" fill="#0C4A6E"/>
<path d="M787.501 723.339C720.485 723.339 665.964 668.818 665.964 601.802C665.964 534.786 720.485 480.265 787.501 480.265C854.517 480.265 909.038 534.786 909.038 601.802C909.038 668.818 854.517 723.339 787.501 723.339ZM787.501 483.314C722.167 483.314 669.013 536.467 669.013 601.802C669.013 667.137 722.167 720.29 787.501 720.29C852.835 720.29 905.989 667.137 905.989 601.802C905.989 536.467 852.835 483.314 787.501 483.314Z" fill="#0C4A6E"/>
<path d="M787.501 757.684C701.547 757.684 631.619 687.756 631.619 601.802C631.619 515.848 701.547 445.92 787.501 445.92C873.455 445.92 943.383 515.848 943.383 601.802C943.383 687.756 873.455 757.684 787.501 757.684ZM787.501 448.969C703.229 448.969 634.668 517.53 634.668 601.802C634.668 686.074 703.229 754.635 787.501 754.635C871.773 754.635 940.334 686.074 940.334 601.802C940.334 517.53 871.773 448.969 787.501 448.969Z" fill="#0C4A6E"/>
<path d="M734.078 653.06L838.748 548.39L840.905 550.546L736.234 655.216L734.078 653.06ZM761.792 649.914L830.105 581.602L832.261 583.758L763.948 652.07L761.792 649.914ZM642.423 765.078L624.225 746.88L669.549 701.556L671.705 703.712L628.537 746.88L642.423 760.766L685.591 717.598L687.747 719.754L642.423 765.078Z" fill="#0C4A6E"/>
<path d="M618.991 739.49L649.812 770.311L526.073 894.051C517.562 902.562 503.763 902.562 495.252 894.051C486.741 885.54 486.741 871.741 495.252 863.23L618.991 739.49Z" fill="white"/>
<path d="M510.663 901.947C504.692 901.947 498.72 899.675 494.174 895.129C492.002 892.969 490.28 890.399 489.108 887.569C487.935 884.739 487.336 881.704 487.344 878.641C487.336 875.578 487.935 872.543 489.107 869.712C490.28 866.882 492.002 864.312 494.174 862.152L618.991 737.335L651.969 770.313L527.151 895.129C522.605 899.675 516.634 901.947 510.663 901.947ZM618.991 741.647L496.33 864.308C494.442 866.186 492.945 868.419 491.926 870.879C490.907 873.339 490.386 875.977 490.393 878.64C490.386 881.303 490.906 883.941 491.926 886.401C492.945 888.862 494.442 891.095 496.33 892.973C504.233 900.875 517.092 900.875 524.995 892.973L647.656 770.312L618.991 741.647ZM611.423 440.265V500.228H614.703V440.265C614.165 440.333 613.619 440.372 613.063 440.372C612.507 440.372 611.96 440.333 611.423 440.265ZM614.702 414.461V354.498H611.422V414.461C611.966 414.391 612.514 414.355 613.062 414.354C613.618 414.355 614.165 414.394 614.702 414.461ZM625.964 429.003H685.927V425.723H625.964C626.032 426.26 626.071 426.807 626.071 427.363C626.071 427.919 626.032 428.466 625.964 429.003ZM600.161 425.723H540.198V429.003H600.161C600.093 428.465 600.054 427.919 600.054 427.363C600.054 426.807 600.093 426.261 600.161 425.723ZM605.099 417.081L562.699 374.681L560.38 377L602.78 419.4C603.453 418.533 604.232 417.754 605.099 417.081ZM621.026 437.646L663.426 480.046L665.745 477.727L623.345 435.327C622.672 436.194 621.893 436.973 621.026 437.646ZM623.345 419.4L665.745 377L663.426 374.681L621.026 417.081C621.893 417.754 622.672 418.533 623.345 419.4ZM602.78 435.327L560.38 477.727L562.699 480.046L605.099 437.646C604.232 436.973 603.453 436.194 602.78 435.327ZM334.123 645.022L342.681 667.26L364.92 675.818L342.681 684.375L334.123 706.614L325.557 684.384L303.327 675.818L325.566 667.26L334.123 645.022ZM839.837 970.659L848.394 992.897L870.633 1001.46L848.394 1010.01L839.837 1032.25L831.271 1010.02L809.041 1001.46L831.279 992.897L839.837 970.659ZM972.655 435.822L981.212 458.061L1003.45 466.618L981.212 475.176L972.655 497.415L964.089 475.184L941.859 466.618L964.097 458.061L972.655 435.822ZM1161.29 535.381H1165.36V716.097H1161.29V535.381Z" fill="#0C4A6E"/>
<path d="M1253.68 623.705V627.772H1072.97V623.705H1253.68Z" fill="#0C4A6E"/>
<path d="M1097.98 563.289L1100.86 560.413L1228.64 688.197L1225.77 691.073L1097.98 563.289Z" fill="#0C4A6E"/>
<path d="M1225.78 560.396L1228.65 563.272L1100.87 691.057L1097.99 688.181L1225.78 560.396Z" fill="#0C4A6E"/>
<path d="M1163.33 641.871C1172.24 641.871 1179.46 634.648 1179.46 625.739C1179.46 616.829 1172.24 609.607 1163.33 609.607C1154.42 609.607 1147.19 616.829 1147.19 625.739C1147.19 634.648 1154.42 641.871 1163.33 641.871Z" fill="#0C4A6E"/>
</svg>
